<svg xmlns="http://www.w3.org/2000/svg" viewBox="0 0 41 34" fill="none">
    <script xmlns=""/>
    <path d="M26.878 29.632H4.28V7.035h19.03l4.281-4.281H2a2 2 0 00-2 2v27.16a2 2 0 002 2h29.159V22.381l-4.281 4.281v2.969z" fill="#0096FA"/>
    <path d="M14.139 10.948a2 2 0 00-2.828 0l-1.576 1.576a2 2 0 000 2.829l5.755 5.753 2.989 2.99a2 2 0 002.829 0l2.989-2.99L39.586 5.818a2 2 0 000-2.828L38.01 1.414a2 2 0 00-2.828 0L21.308 15.288a2 2 0 01-2.828 0l-4.341-4.34z" fill="#0096FA"/>
    <script xmlns=""/>
</svg>