<svg xmlns="http://www.w3.org/2000/svg" viewBox="0 0 1163 684" fill="none">
    <script xmlns=""/>
    <path d="M95.25 199.556c-4.766-16.892-5.944-32.111-5.944-42.951 0-5.251.268-9.488.553-12.407.143-1.46.268-2.581.375-3.329.054-.373.09-.658.125-.854.013-.063.017-.117.024-.162a.626.626 0 00.012-.105.022.022 0 00-.018-.021l-2.165-.364c-1.427-.239-2.766.721-2.932 2.158-.336 2.907-.794 8.134-.794 15.048 0 11.196 1.196 26.842 6.123 44.269 2.178 7.707 3.07 16.091 3.07 24.243 0 8.651-1.017 17.017-2.552 23.959-.768 3.471-1.66 6.586-2.624 9.185a37.826 37.826 0 01-1.68 3.96c-.601 1.198-.3 2.714.818 3.453 1.108.733 2.605.432 3.224-.742.768-1.457 1.495-3.135 2.19-5.016 1.553-4.272 2.91-9.576 3.891-15.521a119.421 119.421 0 001.572-19.278c-.018-8.473-.947-17.266-3.267-25.525z" fill="#858585"/>
    <path d="M91.341 130.527h-6.676l-9.64 17.747h25.974l-9.658-17.747z" fill="#FF7289"/>
    <path d="M70.003 75h-37l18.5-60h31l-12.5 60z" fill="#fff"/>
    <path d="M88.002 0C54.816 0 28.628 25.4 30.056 65.255c1.696 47.277 39.755 74.101 57.946 74.101 18.191 0 56.251-26.824 57.947-74.101C147.377 25.4 121.206 0 88.002 0zm-15.62 31.613a27.192 27.192 0 00-5.873 4.592c-3.82 3.952-6.534 8.99-7.998 15.13-.625 2.617-3.267 4.237-5.89 3.614a4.88 4.88 0 01-3.625-5.874c1.803-7.601 5.32-14.312 10.48-19.634a37.116 37.116 0 017.979-6.248 4.918 4.918 0 016.694 1.745c1.34 2.35.554 5.322-1.767 6.675z" fill="#FE4481"/>
    <path d="M1096.2 595.625c-6.23-22.146-7.76-42.099-7.76-56.311 0-6.884.35-12.438.72-16.265.19-1.914.35-3.384.49-4.364.07-.49.11-.864.16-1.12.02-.117.02-.21.05-.28v-.094l-6.23-1.05c-.02.14-1.49 8.915-1.49 23.127 0 14.678 1.56 35.191 8 58.037 2.84 10.105 4.01 21.096 4.01 31.784 0 11.342-1.33 22.31-3.34 31.411-1 4.551-2.16 8.635-3.42 12.042-1.24 3.407-2.57 6.161-3.78 7.958l5.27 3.5c1.61-2.427 3.08-5.554 4.45-9.288 2.03-5.601 3.8-12.555 5.08-20.349a157.424 157.424 0 002.05-25.274c-.02-11.108-1.23-22.636-4.26-33.464z" fill="#858585"/>
    <path d="M1037.05 368.466l-13.43 36.082 43.51 13.733 19.6-13.733v-36.082l-9.13-16.425h-10.47l-30.08 16.425z" fill="#fff"/>
    <path fill-rule="evenodd" clip-rule="evenodd" d="M1011.07 419.551c-1.86-52.25 32.33-85.551 75.66-85.551 43.36 0 77.53 33.301 75.67 85.551-1.95 54.376-40.43 88.115-65.89 95.577l7.19 13.265h-33.91l7.17-13.262c-25.45-7.456-63.94-41.197-65.89-95.58zm47.6-38.085c2.26-2.357 4.85-4.364 7.67-6.02 3.03-1.774 4.05-5.671 2.31-8.752-1.8-3.033-5.69-4.06-8.74-2.287a48.176 48.176 0 00-10.42 8.191c-6.74 6.978-11.33 15.776-13.69 25.741-.81 3.43 1.31 6.884 4.74 7.701 3.42.816 6.87-1.307 7.69-4.738 1.91-8.051 5.45-14.655 10.44-19.836z" fill="#0096FA"/>
    <path d="M36.757 276.873a90.657 90.657 0 01-3.349-24.294c0-2.97.15-5.367.312-7.018.08-.825.15-1.46.211-1.883.03-.211.05-.372.07-.483.01-.05.01-.09.02-.121v-.04l-2.684-.453c-.01.06-.644 3.846-.644 9.977 0 6.333.674 15.183 3.45 25.04 1.226 4.359 1.729 9.101 1.729 13.712 0 4.893-.573 9.625-1.438 13.552-.433 1.963-.935 3.725-1.478 5.195-.534 1.47-1.107 2.658-1.63 3.433L33.6 315c.694-1.047 1.328-2.396 1.92-4.007.876-2.416 1.64-5.416 2.193-8.779.553-3.363.885-7.078.885-10.904-.01-4.792-.533-9.766-1.84-14.437z" fill="#858585"/>
    <path d="M11.24 178.87l-5.793 15.567 18.77 5.924 8.457-5.924V178.87l-3.94-7.086h-4.518L11.24 178.87z" fill="#fff"/>
    <path fill-rule="evenodd" clip-rule="evenodd" d="M.031 200.909C-.773 178.367 13.98 164 32.674 164c18.704 0 33.447 14.367 32.642 36.909-.838 23.46-17.442 38.016-28.423 41.235l3.102 5.723H25.363l3.096-5.722C17.478 238.928.869 224.372.03 200.909zm20.535-16.431a15.325 15.325 0 013.309-2.597c1.307-.765 1.75-2.447.995-3.776a2.763 2.763 0 00-3.77-.986 20.91 20.91 0 00-4.496 3.533c-2.906 3.011-4.887 6.806-5.903 11.106a2.76 2.76 0 002.041 3.322 2.758 2.758 0 003.319-2.044c.825-3.473 2.353-6.323 4.505-8.558z" fill="#FC0"/>
    <script xmlns=""/>
</svg>