<svg xmlns="http://www.w3.org/2000/svg" viewBox="0 0 298 109" fill="none">
    <script xmlns=""/>
    <path d="M24.8 51.172a40.942 40.942 0 01-1.524-11.014c0-1.347.069-2.433.142-3.182.037-.374.069-.661.096-.853.014-.096.023-.17.033-.22.003-.015.004-.03.005-.04.002-.01.004-.019.004-.028a.005.005 0 00-.005-.005l-.555-.093a.64.64 0 00-.752.553 34.134 34.134 0 00-.204 3.859c0 2.87.307 6.883 1.57 11.351.559 1.977.788 4.127.788 6.217 0 2.218-.261 4.364-.655 6.144-.196.89-.425 1.688-.673 2.355-.14.385-.286.727-.43 1.015-.155.308-.077.696.21.886.284.188.667.11.826-.19.197-.374.383-.804.562-1.287.398-1.095.746-2.455.998-3.98.251-1.524.402-3.208.402-4.943-.004-2.173-.242-4.428-.837-6.545z" fill="#858585"/>
    <path d="M23.798 33.47h-1.712l-2.472 4.551h6.66l-2.476-4.55z" fill="#FF7289"/>
    <path d="M18.326 19.232H8.838l4.744-15.386h7.95l-3.206 15.386z" fill="#fff"/>
    <path d="M22.942 0c-8.51 0-15.225 6.513-14.86 16.733.436 12.123 10.195 19.002 14.86 19.002 4.665 0 14.424-6.879 14.859-19.002C38.167 6.513 31.456 0 22.942 0zm-4.006 8.106a6.972 6.972 0 00-1.506 1.178c-.98 1.013-1.675 2.305-2.05 3.88a1.255 1.255 0 01-1.51.926 1.251 1.251 0 01-.93-1.506c.462-1.949 1.364-3.67 2.687-5.034a9.514 9.514 0 012.046-1.603 1.261 1.261 0 011.717.448 1.257 1.257 0 01-.454 1.711z" fill="#FE4481"/>
    <path d="M280.847 86.088a53.874 53.874 0 01-1.99-14.44c0-1.765.09-3.19.185-4.17.048-.491.09-.868.126-1.12.018-.125.03-.221.042-.287.005-.03.005-.054.011-.072v-.024l-1.595-.269c-.006.036-.383 2.286-.383 5.93 0 3.764.401 9.024 2.05 14.883.729 2.59 1.028 5.41 1.028 8.15 0 2.908-.34 5.721-.854 8.055a23.85 23.85 0 01-.879 3.088c-.317.873-.658 1.579-.968 2.04l1.35.898c.413-.623.789-1.424 1.142-2.382.52-1.436.974-3.219 1.303-5.218.329-1.999.526-4.207.526-6.48-.006-2.85-.317-5.805-1.094-8.582z" fill="#858585"/>
    <path d="M265.681 27.838l-3.443 9.252 11.156 3.522 5.027-3.522v-9.252l-2.342-4.212h-2.685l-7.713 4.212z" fill="#fff"/>
    <path fill-rule="evenodd" clip-rule="evenodd" d="M259.019 40.938C258.54 27.539 267.309 19 278.42 19c11.118 0 19.88 8.54 19.402 21.938-.498 13.943-10.367 22.595-16.894 24.508l1.844 3.402h-8.697l1.84-3.401c-6.527-1.912-16.398-10.564-16.896-24.51zm12.205-9.766a9.116 9.116 0 011.966-1.544 1.652 1.652 0 00.592-2.244 1.643 1.643 0 00-2.241-.587 12.42 12.42 0 00-2.672 2.1c-1.727 1.79-2.905 4.046-3.509 6.601a1.639 1.639 0 103.186.76c.49-2.064 1.399-3.758 2.678-5.086z" fill="#0096FA"/>
    <path d="M9.801 70.998a23.246 23.246 0 01-.859-6.23c0-.762.04-1.376.08-1.8a12 12 0 01.055-.482c.007-.054.012-.096.018-.124.002-.013.002-.023.005-.031v-.01l-.689-.117c-.002.016-.165.987-.165 2.559 0 1.624.173 3.893.885 6.42.314 1.118.443 2.334.443 3.517 0 1.255-.147 2.468-.369 3.475-.11.503-.24.955-.379 1.332a4.224 4.224 0 01-.417.88l.582.388c.178-.269.34-.615.493-1.028.224-.62.42-1.389.562-2.251a17.38 17.38 0 00.227-2.796c-.002-1.23-.137-2.504-.472-3.702z" fill="#858585"/>
    <path d="M3.258 45.867L1.772 49.86l4.813 1.52 2.17-1.52v-3.992l-1.01-1.817h-1.16l-3.327 1.817z" fill="#fff"/>
    <path fill-rule="evenodd" clip-rule="evenodd" d="M.384 51.519c-.207-5.78 3.576-9.465 8.37-9.465 4.797 0 8.577 3.684 8.37 9.465-.214 6.015-4.472 9.748-7.288 10.573l.796 1.468H6.879l.794-1.467C4.857 61.268.6 57.535.383 51.519zm5.265-4.214c.25-.26.537-.482.849-.666a.712.712 0 00.255-.968.709.709 0 00-.967-.253 5.363 5.363 0 00-1.153.906c-.745.772-1.253 1.746-1.513 2.848a.707.707 0 101.374.328c.212-.89.604-1.621 1.155-2.195z" fill="#FC0"/>
    <script xmlns=""/>
</svg>