<svg xmlns="http://www.w3.org/2000/svg" viewBox="0 0 60 60" fill="none">
    <script xmlns=""/>
    <path d="M5 20c0-8.284 6.716-15 15-15h20c8.284 0 15 6.716 15 15v20c0 8.284-6.716 15-15 15H20c-8.284 0-15-6.716-15-15V20z" fill="#0096FA"/>
    <path fill-rule="evenodd" clip-rule="evenodd" d="M47.187 27.971a12.801 12.801 0 00-4.408-9.735c-2.791-2.448-6.7-3.861-11.243-3.861-11.841 0-19.895 9.172-19.895 9.172l2.27 3.615s1.255.106.59-2.024c.574-1.088 1.698-2.553 3.891-4.245v24.082c-.945.267-2.195.771-1.343 1.627h6.52c.86-.865-.496-1.385-1.322-1.627v-5.681s4.47 1.761 9.289 1.761c4.234 0 8.086-1.264 10.951-3.548 2.865-2.27 4.712-5.66 4.7-9.536zm-4.757-.06c-.011 3.134-1.125 5.715-3.106 7.695-1.981 1.963-4.862 3.205-8.186 3.203-3.708.002-6.83-.719-8.89-1.737V19.003c2.26-1.612 5.928-2.606 8.89-2.6 3.598.003 6.424 1.367 8.334 3.439 1.907 2.083 2.949 4.85 2.958 8.067z" fill="#fff"/>
    <script xmlns=""/>
</svg>