<svg xmlns="http://www.w3.org/2000/svg" viewBox="0 0 28 29" fill="none">
    <script xmlns=""/>
    <path fill-rule="evenodd" clip-rule="evenodd" d="M11.857 20.998a8.571 8.571 0 100-17.143 8.571 8.571 0 000 17.143zm9.847-2.766a11.375 11.375 0 001.582-5.805C23.286 6.115 18.17.998 11.857.998 5.546.998.43 6.115.43 12.427c0 6.311 5.117 11.428 11.428 11.428 2.12 0 4.105-.577 5.806-1.582l5.12 5.12a2.857 2.857 0 004.041-4.04l-5.12-5.12zM13.286 8.141a1.429 1.429 0 00-2.857 0v2.865H7.563a1.429 1.429 0 000 2.858h2.866v2.865a1.428 1.428 0 102.857 0v-2.865h2.866a1.429 1.429 0 100-2.858h-2.866V8.141z" fill="#fff"/>
    <script xmlns=""/>
</svg>