<svg xmlns="http://www.w3.org/2000/svg" viewBox="0 0 49 48" fill="none">
    <script xmlns=""/>
    <rect x="2.625" y="2" width="44" height="44" rx="22" fill="#1DA1F2" stroke="#fff" stroke-width="4"/>
    <path d="M45.25 24c0-11.046-9.234-20-20.625-20S4 12.954 4 24c0 9.982 7.542 18.255 17.402 19.756V29.78h-5.237V24h5.237v-4.407c0-5.012 3.08-7.781 7.79-7.781 2.257 0 4.617.39 4.617.39v4.922h-2.6c-2.563 0-3.362 1.542-3.362 3.124v3.751h5.72l-.914 5.781h-4.806v13.976c9.86-1.5 17.403-9.774 17.403-19.757z" fill="#1877F2"/>
    <path d="M32.653 29.782L33.567 24h-5.72v-3.75c0-1.582.8-3.123 3.361-3.123h2.6v-4.922s-2.36-.39-4.616-.39c-4.711 0-7.79 2.768-7.79 7.78V24h-5.237v5.782h5.237v13.975a21.41 21.41 0 006.445 0V29.782h4.806z" fill="#fff"/>
    <script xmlns=""/>
</svg>