<svg xmlns="http://www.w3.org/2000/svg" viewBox="0 0 49 48" fill="none">
    <script xmlns=""/>
    <rect x="2.249" y="2" width="44" height="44" rx="22" fill="#1DA1F2" stroke="#fff" stroke-width="4"/>
    <path d="M20.828 33.958c8.985 0 13.9-7.329 13.9-13.684 0-.209 0-.416-.015-.622a9.853 9.853 0 002.437-2.49 9.869 9.869 0 01-2.805.757 4.84 4.84 0 002.147-2.66 9.882 9.882 0 01-3.102 1.167 4.914 4.914 0 00-2.771-1.452 4.956 4.956 0 00-3.098.506 4.845 4.845 0 00-2.146 2.256 4.745 4.745 0 00-.31 3.077 14.041 14.041 0 01-5.577-1.459 13.83 13.83 0 01-4.49-3.566 4.75 4.75 0 00-.536 3.505 4.814 4.814 0 002.048 2.915 4.908 4.908 0 01-2.218-.602v.061c0 1.11.391 2.187 1.106 3.046a4.901 4.901 0 002.814 1.669 4.95 4.95 0 01-2.206.082c.312.956.92 1.792 1.738 2.39a4.94 4.94 0 002.826.95 9.902 9.902 0 01-7.23 1.994 13.988 13.988 0 007.488 2.157" fill="#fff"/>
    <script xmlns=""/>
</svg>